<mxfile host="app.diagrams.net" agent="Mozilla/5.0 (Windows NT 10.0; Win64; x64) AppleWebKit/537.36 (KHTML, like Gecko) Chrome/138.0.0.0 Safari/537.36 Edg/138.0.0.0" version="28.0.4">
  <diagram name="Page-1" id="cqFNTiU6uErdtZ2TDNFi">
    <mxGraphModel dx="778" dy="448" grid="0" gridSize="10" guides="1" tooltips="1" connect="1" arrows="1" fold="1" page="0" pageScale="1" pageWidth="827" pageHeight="1169" math="0" shadow="0">
      <root>
        <mxCell id="0" />
        <mxCell id="1" parent="0" />
        <mxCell id="MjwD6e0wirsRCNaimnq1-69" value="" style="edgeStyle=none;curved=1;rounded=0;orthogonalLoop=1;jettySize=auto;html=1;fontSize=12;startSize=8;endSize=8;" edge="1" parent="1" source="MjwD6e0wirsRCNaimnq1-3" target="MjwD6e0wirsRCNaimnq1-4">
          <mxGeometry relative="1" as="geometry" />
        </mxCell>
        <mxCell id="MjwD6e0wirsRCNaimnq1-3" value="Utilisateur&lt;div&gt;&lt;br&gt;&lt;/div&gt;" style="shape=umlActor;verticalLabelPosition=bottom;verticalAlign=top;html=1;" vertex="1" parent="1">
          <mxGeometry x="106" y="110" width="30" height="60" as="geometry" />
        </mxCell>
        <mxCell id="MjwD6e0wirsRCNaimnq1-83" style="edgeStyle=none;curved=1;rounded=0;orthogonalLoop=1;jettySize=auto;html=1;exitX=0.5;exitY=0.5;exitDx=0;exitDy=0;exitPerimeter=0;fontSize=12;startSize=8;endSize=8;" edge="1" parent="1" source="MjwD6e0wirsRCNaimnq1-4">
          <mxGeometry relative="1" as="geometry">
            <mxPoint x="132" y="314.0000305175781" as="targetPoint" />
          </mxGeometry>
        </mxCell>
        <mxCell id="MjwD6e0wirsRCNaimnq1-4" value="Administrateur&lt;div&gt;&lt;br&gt;&lt;/div&gt;" style="shape=umlActor;verticalLabelPosition=bottom;verticalAlign=top;html=1;" vertex="1" parent="1">
          <mxGeometry x="117" y="328" width="30" height="60" as="geometry" />
        </mxCell>
        <mxCell id="MjwD6e0wirsRCNaimnq1-6" value="&lt;br&gt;&lt;div&gt;&lt;br&gt;&lt;/div&gt;" style="html=1;whiteSpace=wrap;" vertex="1" parent="1">
          <mxGeometry x="232" y="72" width="407" height="368" as="geometry" />
        </mxCell>
        <mxCell id="MjwD6e0wirsRCNaimnq1-7" value="Serveur Web qui génère les logs" style="html=1;whiteSpace=wrap;" vertex="1" parent="1">
          <mxGeometry x="340" y="72" width="165" height="29" as="geometry" />
        </mxCell>
        <mxCell id="MjwD6e0wirsRCNaimnq1-9" value="Accéder au site" style="ellipse;whiteSpace=wrap;html=1;" vertex="1" parent="1">
          <mxGeometry x="253" y="124" width="140" height="32" as="geometry" />
        </mxCell>
        <mxCell id="MjwD6e0wirsRCNaimnq1-11" value="Surveiller le serveur&amp;nbsp;" style="ellipse;whiteSpace=wrap;html=1;" vertex="1" parent="1">
          <mxGeometry x="255" y="385" width="140" height="32" as="geometry" />
        </mxCell>
        <mxCell id="MjwD6e0wirsRCNaimnq1-12" value="Recevoir les logs" style="ellipse;whiteSpace=wrap;html=1;" vertex="1" parent="1">
          <mxGeometry x="462" y="318" width="140" height="36" as="geometry" />
        </mxCell>
        <mxCell id="MjwD6e0wirsRCNaimnq1-13" value="Configurer les logs" style="ellipse;whiteSpace=wrap;html=1;" vertex="1" parent="1">
          <mxGeometry x="286" y="326" width="140" height="35" as="geometry" />
        </mxCell>
        <mxCell id="MjwD6e0wirsRCNaimnq1-14" value="Générer des logs" style="ellipse;whiteSpace=wrap;html=1;" vertex="1" parent="1">
          <mxGeometry x="478" y="132" width="140" height="50" as="geometry" />
        </mxCell>
        <mxCell id="MjwD6e0wirsRCNaimnq1-16" value="Lire/stocker les logs" style="ellipse;whiteSpace=wrap;html=1;" vertex="1" parent="1">
          <mxGeometry x="465" y="391" width="140" height="38" as="geometry" />
        </mxCell>
        <mxCell id="MjwD6e0wirsRCNaimnq1-18" style="edgeStyle=none;curved=1;rounded=0;orthogonalLoop=1;jettySize=auto;html=1;exitX=0;exitY=0.25;exitDx=0;exitDy=0;fontSize=12;startSize=8;endSize=8;" edge="1" parent="1" source="MjwD6e0wirsRCNaimnq1-73" target="MjwD6e0wirsRCNaimnq1-16">
          <mxGeometry relative="1" as="geometry">
            <mxPoint x="713.3333740234375" y="384.0000305175781" as="targetPoint" />
            <mxPoint x="718" y="373" as="sourcePoint" />
          </mxGeometry>
        </mxCell>
        <mxCell id="MjwD6e0wirsRCNaimnq1-22" style="edgeStyle=none;curved=1;rounded=0;orthogonalLoop=1;jettySize=auto;html=1;exitX=0.5;exitY=0.5;exitDx=0;exitDy=0;exitPerimeter=0;fontSize=12;startSize=8;endSize=8;" edge="1" parent="1" target="MjwD6e0wirsRCNaimnq1-12">
          <mxGeometry relative="1" as="geometry">
            <mxPoint x="718" y="373" as="sourcePoint" />
          </mxGeometry>
        </mxCell>
        <mxCell id="MjwD6e0wirsRCNaimnq1-30" value="Envoyer des requêtes" style="ellipse;whiteSpace=wrap;html=1;" vertex="1" parent="1">
          <mxGeometry x="478" y="204" width="140" height="43" as="geometry" />
        </mxCell>
        <mxCell id="MjwD6e0wirsRCNaimnq1-48" style="edgeStyle=none;curved=1;rounded=0;orthogonalLoop=1;jettySize=auto;html=1;fontSize=12;startSize=8;endSize=8;" edge="1" parent="1">
          <mxGeometry relative="1" as="geometry">
            <mxPoint x="135" y="359" as="sourcePoint" />
            <mxPoint x="281" y="344" as="targetPoint" />
          </mxGeometry>
        </mxCell>
        <mxCell id="MjwD6e0wirsRCNaimnq1-57" style="edgeStyle=none;curved=1;rounded=0;orthogonalLoop=1;jettySize=auto;html=1;exitX=0.5;exitY=0.5;exitDx=0;exitDy=0;exitPerimeter=0;fontSize=12;startSize=8;endSize=8;" edge="1" parent="1" source="MjwD6e0wirsRCNaimnq1-3" target="MjwD6e0wirsRCNaimnq1-9">
          <mxGeometry relative="1" as="geometry" />
        </mxCell>
        <mxCell id="MjwD6e0wirsRCNaimnq1-58" style="edgeStyle=none;curved=1;rounded=0;orthogonalLoop=1;jettySize=auto;html=1;exitX=0.5;exitY=0.5;exitDx=0;exitDy=0;exitPerimeter=0;fontSize=12;startSize=8;endSize=8;entryX=0;entryY=0.5;entryDx=0;entryDy=0;" edge="1" parent="1" source="MjwD6e0wirsRCNaimnq1-4">
          <mxGeometry relative="1" as="geometry">
            <mxPoint x="253" y="399.5" as="targetPoint" />
          </mxGeometry>
        </mxCell>
        <mxCell id="MjwD6e0wirsRCNaimnq1-70" value="" style="edgeStyle=none;curved=1;rounded=0;orthogonalLoop=1;jettySize=auto;html=1;fontSize=12;startSize=8;endSize=8;" edge="1" parent="1" target="MjwD6e0wirsRCNaimnq1-14">
          <mxGeometry relative="1" as="geometry">
            <mxPoint x="699" y="157" as="sourcePoint" />
          </mxGeometry>
        </mxCell>
        <mxCell id="MjwD6e0wirsRCNaimnq1-78" value="" style="edgeStyle=none;curved=1;rounded=0;orthogonalLoop=1;jettySize=auto;html=1;fontSize=12;startSize=8;endSize=8;entryX=1;entryY=0.5;entryDx=0;entryDy=0;" edge="1" parent="1" target="MjwD6e0wirsRCNaimnq1-30">
          <mxGeometry relative="1" as="geometry">
            <mxPoint x="706.06" y="177.21115384615382" as="sourcePoint" />
            <mxPoint x="622.0029876267811" y="175.99879309077085" as="targetPoint" />
          </mxGeometry>
        </mxCell>
        <mxCell id="MjwD6e0wirsRCNaimnq1-72" value="" style="html=1;whiteSpace=wrap;" vertex="1" parent="1">
          <mxGeometry x="704" y="124" width="108" height="99" as="geometry" />
        </mxCell>
        <mxCell id="MjwD6e0wirsRCNaimnq1-73" value="" style="html=1;whiteSpace=wrap;" vertex="1" parent="1">
          <mxGeometry x="704" y="364" width="150" height="83" as="geometry" />
        </mxCell>
        <mxCell id="MjwD6e0wirsRCNaimnq1-74" value="S&#39;authentifier" style="ellipse;whiteSpace=wrap;html=1;" vertex="1" parent="1">
          <mxGeometry x="259" y="225" width="140" height="33" as="geometry" />
        </mxCell>
        <mxCell id="MjwD6e0wirsRCNaimnq1-80" value="Include" style="endArrow=open;endSize=12;dashed=1;html=1;rounded=0;fontSize=12;curved=1;exitX=0.5;exitY=1;exitDx=0;exitDy=0;" edge="1" parent="1" source="MjwD6e0wirsRCNaimnq1-30" target="MjwD6e0wirsRCNaimnq1-12">
          <mxGeometry width="160" relative="1" as="geometry">
            <mxPoint x="401" y="269" as="sourcePoint" />
            <mxPoint x="561" y="269" as="targetPoint" />
          </mxGeometry>
        </mxCell>
        <mxCell id="MjwD6e0wirsRCNaimnq1-88" value="Include" style="endArrow=open;endSize=12;dashed=1;html=1;rounded=0;fontSize=12;curved=1;entryX=0.64;entryY=0.938;entryDx=0;entryDy=0;entryPerimeter=0;" edge="1" parent="1" source="MjwD6e0wirsRCNaimnq1-74" target="MjwD6e0wirsRCNaimnq1-9">
          <mxGeometry x="-0.075" width="160" relative="1" as="geometry">
            <mxPoint x="261" y="196" as="sourcePoint" />
            <mxPoint x="421" y="196" as="targetPoint" />
            <mxPoint as="offset" />
          </mxGeometry>
        </mxCell>
        <mxCell id="MjwD6e0wirsRCNaimnq1-89" value="Include" style="endArrow=open;endSize=12;dashed=1;html=1;rounded=0;fontSize=12;curved=1;" edge="1" parent="1" source="MjwD6e0wirsRCNaimnq1-74" target="MjwD6e0wirsRCNaimnq1-13">
          <mxGeometry width="160" relative="1" as="geometry">
            <mxPoint x="255" y="276" as="sourcePoint" />
            <mxPoint x="415" y="276" as="targetPoint" />
          </mxGeometry>
        </mxCell>
        <mxCell id="MjwD6e0wirsRCNaimnq1-94" value="Serveur de collecte de logs" style="shape=umlActor;verticalLabelPosition=bottom;verticalAlign=top;html=1;" vertex="1" parent="1">
          <mxGeometry x="766.5" y="376" width="17.5" height="35" as="geometry" />
        </mxCell>
        <mxCell id="MjwD6e0wirsRCNaimnq1-96" value="Application" style="shape=umlActor;verticalLabelPosition=bottom;verticalAlign=top;html=1;" vertex="1" parent="1">
          <mxGeometry x="736" y="144" width="30" height="47" as="geometry" />
        </mxCell>
      </root>
    </mxGraphModel>
  </diagram>
</mxfile>
